<?xml version="1.0" encoding="UTF-8" standalone="no"?>
<!DOCTYPE svg PUBLIC "-//W3C//DTD SVG 1.1//EN"
 "http://www.w3.org/Graphics/SVG/1.1/DTD/svg11.dtd">
<!-- Generated by graphviz version 2.43.0 (0)
 -->
<!-- Title: %3 Pages: 1 -->
<svg width="346pt" height="206pt"
 viewBox="0.00 0.00 346.19 206.00" xmlns="http://www.w3.org/2000/svg" xmlns:xlink="http://www.w3.org/1999/xlink">
<g id="graph0" class="graph" transform="scale(1 1) rotate(0) translate(4 202)">
<title>%3</title>
<polygon fill="white" stroke="transparent" points="-4,4 -4,-202 342.19,-202 342.19,4 -4,4"/>
<!-- x_1 -->
<g id="node1" class="node">
<title>x_1</title>
<ellipse fill="orange" stroke="orange" cx="27" cy="-153" rx="27" ry="18"/>
<text text-anchor="middle" x="27" y="-149.3" font-family="Times,serif" font-size="14.00">x_1</text>
</g>
<!-- x_2 -->
<g id="node2" class="node">
<title>x_2</title>
<ellipse fill="orange" stroke="orange" cx="27" cy="-99" rx="27" ry="18"/>
<text text-anchor="middle" x="27" y="-95.3" font-family="Times,serif" font-size="14.00">x_2</text>
</g>
<!-- x_1&#45;&gt;x_2 -->
<!-- f1_1 -->
<g id="node4" class="node">
<title>f1_1</title>
<ellipse fill="silver" stroke="silver" cx="120.55" cy="-180" rx="30.59" ry="18"/>
<text text-anchor="middle" x="120.55" y="-176.3" font-family="Times,serif" font-size="14.00">f1_1</text>
</g>
<!-- x_1&#45;&gt;f1_1 -->
<g id="edge1" class="edge">
<title>x_1&#45;&gt;f1_1</title>
<path fill="none" stroke="black" d="M52.05,-160.09C61.53,-162.89 72.62,-166.16 83.04,-169.23"/>
<polygon fill="black" stroke="black" points="82.17,-172.63 92.75,-172.1 84.15,-165.91 82.17,-172.63"/>
</g>
<!-- f1_2 -->
<g id="node5" class="node">
<title>f1_2</title>
<ellipse fill="silver" stroke="silver" cx="120.55" cy="-126" rx="30.59" ry="18"/>
<text text-anchor="middle" x="120.55" y="-122.3" font-family="Times,serif" font-size="14.00">f1_2</text>
</g>
<!-- x_1&#45;&gt;f1_2 -->
<g id="edge2" class="edge">
<title>x_1&#45;&gt;f1_2</title>
<path fill="none" stroke="black" d="M52.05,-145.91C61.53,-143.11 72.62,-139.84 83.04,-136.77"/>
<polygon fill="black" stroke="black" points="84.15,-140.09 92.75,-133.9 82.17,-133.37 84.15,-140.09"/>
</g>
<!-- f1_3 -->
<g id="node6" class="node">
<title>f1_3</title>
<ellipse fill="silver" stroke="silver" cx="120.55" cy="-72" rx="30.59" ry="18"/>
<text text-anchor="middle" x="120.55" y="-68.3" font-family="Times,serif" font-size="14.00">f1_3</text>
</g>
<!-- x_1&#45;&gt;f1_3 -->
<g id="edge3" class="edge">
<title>x_1&#45;&gt;f1_3</title>
<path fill="none" stroke="black" d="M43.95,-138.89C58.12,-126.35 79.06,-107.82 95.31,-93.45"/>
<polygon fill="black" stroke="black" points="97.69,-96.02 102.86,-86.77 93.05,-90.77 97.69,-96.02"/>
</g>
<!-- f1_4 -->
<g id="node7" class="node">
<title>f1_4</title>
<ellipse fill="silver" stroke="silver" cx="120.55" cy="-18" rx="30.59" ry="18"/>
<text text-anchor="middle" x="120.55" y="-14.3" font-family="Times,serif" font-size="14.00">f1_4</text>
</g>
<!-- x_1&#45;&gt;f1_4 -->
<g id="edge4" class="edge">
<title>x_1&#45;&gt;f1_4</title>
<path fill="none" stroke="black" d="M39.04,-136.72C54.83,-113.43 84,-70.41 102.56,-43.05"/>
<polygon fill="black" stroke="black" points="105.46,-45.01 108.18,-34.77 99.67,-41.08 105.46,-45.01"/>
</g>
<!-- x_3 -->
<g id="node3" class="node">
<title>x_3</title>
<ellipse fill="orange" stroke="orange" cx="27" cy="-45" rx="27" ry="18"/>
<text text-anchor="middle" x="27" y="-41.3" font-family="Times,serif" font-size="14.00">x_3</text>
</g>
<!-- x_2&#45;&gt;x_3 -->
<!-- x_2&#45;&gt;f1_1 -->
<g id="edge5" class="edge">
<title>x_2&#45;&gt;f1_1</title>
<path fill="none" stroke="black" d="M43.95,-113.11C58.12,-125.65 79.06,-144.18 95.31,-158.55"/>
<polygon fill="black" stroke="black" points="93.05,-161.23 102.86,-165.23 97.69,-155.98 93.05,-161.23"/>
</g>
<!-- x_2&#45;&gt;f1_2 -->
<g id="edge6" class="edge">
<title>x_2&#45;&gt;f1_2</title>
<path fill="none" stroke="black" d="M52.05,-106.09C61.53,-108.89 72.62,-112.16 83.04,-115.23"/>
<polygon fill="black" stroke="black" points="82.17,-118.63 92.75,-118.1 84.15,-111.91 82.17,-118.63"/>
</g>
<!-- x_2&#45;&gt;f1_3 -->
<g id="edge7" class="edge">
<title>x_2&#45;&gt;f1_3</title>
<path fill="none" stroke="black" d="M52.05,-91.91C61.53,-89.11 72.62,-85.84 83.04,-82.77"/>
<polygon fill="black" stroke="black" points="84.15,-86.09 92.75,-79.9 82.17,-79.37 84.15,-86.09"/>
</g>
<!-- x_2&#45;&gt;f1_4 -->
<g id="edge8" class="edge">
<title>x_2&#45;&gt;f1_4</title>
<path fill="none" stroke="black" d="M43.95,-84.89C58.12,-72.35 79.06,-53.82 95.31,-39.45"/>
<polygon fill="black" stroke="black" points="97.69,-42.02 102.86,-32.77 93.05,-36.77 97.69,-42.02"/>
</g>
<!-- x_3&#45;&gt;f1_1 -->
<g id="edge9" class="edge">
<title>x_3&#45;&gt;f1_1</title>
<path fill="none" stroke="black" d="M39.04,-61.28C54.83,-84.57 84,-127.59 102.56,-154.95"/>
<polygon fill="black" stroke="black" points="99.67,-156.92 108.18,-163.23 105.46,-152.99 99.67,-156.92"/>
</g>
<!-- x_3&#45;&gt;f1_2 -->
<g id="edge10" class="edge">
<title>x_3&#45;&gt;f1_2</title>
<path fill="none" stroke="black" d="M43.95,-59.11C58.12,-71.65 79.06,-90.18 95.31,-104.55"/>
<polygon fill="black" stroke="black" points="93.05,-107.23 102.86,-111.23 97.69,-101.98 93.05,-107.23"/>
</g>
<!-- x_3&#45;&gt;f1_3 -->
<g id="edge11" class="edge">
<title>x_3&#45;&gt;f1_3</title>
<path fill="none" stroke="black" d="M52.05,-52.09C61.53,-54.89 72.62,-58.16 83.04,-61.23"/>
<polygon fill="black" stroke="black" points="82.17,-64.63 92.75,-64.1 84.15,-57.91 82.17,-64.63"/>
</g>
<!-- x_3&#45;&gt;f1_4 -->
<g id="edge12" class="edge">
<title>x_3&#45;&gt;f1_4</title>
<path fill="none" stroke="black" d="M52.05,-37.91C61.53,-35.11 72.62,-31.84 83.04,-28.77"/>
<polygon fill="black" stroke="black" points="84.15,-32.09 92.75,-25.9 82.17,-25.37 84.15,-32.09"/>
</g>
<!-- f1_1&#45;&gt;f1_2 -->
<!-- f2_1 -->
<g id="node8" class="node">
<title>f2_1</title>
<ellipse fill="silver" stroke="silver" cx="217.64" cy="-180" rx="30.59" ry="18"/>
<text text-anchor="middle" x="217.64" y="-176.3" font-family="Times,serif" font-size="14.00">f2_1</text>
</g>
<!-- f1_1&#45;&gt;f2_1 -->
<g id="edge13" class="edge">
<title>f1_1&#45;&gt;f2_1</title>
<path fill="none" stroke="black" d="M151.11,-180C159.25,-180 168.22,-180 176.83,-180"/>
<polygon fill="black" stroke="black" points="177.09,-183.5 187.09,-180 177.09,-176.5 177.09,-183.5"/>
</g>
<!-- f2_2 -->
<g id="node9" class="node">
<title>f2_2</title>
<ellipse fill="silver" stroke="silver" cx="217.64" cy="-126" rx="30.59" ry="18"/>
<text text-anchor="middle" x="217.64" y="-122.3" font-family="Times,serif" font-size="14.00">f2_2</text>
</g>
<!-- f1_1&#45;&gt;f2_2 -->
<g id="edge14" class="edge">
<title>f1_1&#45;&gt;f2_2</title>
<path fill="none" stroke="black" d="M143.13,-167.75C155.89,-160.5 172.26,-151.2 186.31,-143.22"/>
<polygon fill="black" stroke="black" points="188.18,-146.19 195.15,-138.2 184.72,-140.1 188.18,-146.19"/>
</g>
<!-- f2_3 -->
<g id="node10" class="node">
<title>f2_3</title>
<ellipse fill="silver" stroke="silver" cx="217.64" cy="-72" rx="30.59" ry="18"/>
<text text-anchor="middle" x="217.64" y="-68.3" font-family="Times,serif" font-size="14.00">f2_3</text>
</g>
<!-- f1_1&#45;&gt;f2_3 -->
<g id="edge15" class="edge">
<title>f1_1&#45;&gt;f2_3</title>
<path fill="none" stroke="black" d="M135.58,-164.06C151.45,-146.04 177.46,-116.5 195.73,-95.75"/>
<polygon fill="black" stroke="black" points="198.57,-97.82 202.55,-88 193.32,-93.19 198.57,-97.82"/>
</g>
<!-- f2_4 -->
<g id="node11" class="node">
<title>f2_4</title>
<ellipse fill="silver" stroke="silver" cx="217.64" cy="-18" rx="30.59" ry="18"/>
<text text-anchor="middle" x="217.64" y="-14.3" font-family="Times,serif" font-size="14.00">f2_4</text>
</g>
<!-- f1_1&#45;&gt;f2_4 -->
<g id="edge16" class="edge">
<title>f1_1&#45;&gt;f2_4</title>
<path fill="none" stroke="black" d="M131.54,-162.97C148.19,-134.6 181.71,-77.5 201.35,-44.05"/>
<polygon fill="black" stroke="black" points="204.45,-45.69 206.49,-35.29 198.41,-42.14 204.45,-45.69"/>
</g>
<!-- f1_2&#45;&gt;f1_3 -->
<!-- f1_2&#45;&gt;f2_1 -->
<g id="edge18" class="edge">
<title>f1_2&#45;&gt;f2_1</title>
<path fill="none" stroke="black" d="M143.13,-138.25C155.89,-145.5 172.26,-154.8 186.31,-162.78"/>
<polygon fill="black" stroke="black" points="184.72,-165.9 195.15,-167.8 188.18,-159.81 184.72,-165.9"/>
</g>
<!-- f1_2&#45;&gt;f2_2 -->
<g id="edge19" class="edge">
<title>f1_2&#45;&gt;f2_2</title>
<path fill="none" stroke="black" d="M151.11,-126C159.25,-126 168.22,-126 176.83,-126"/>
<polygon fill="black" stroke="black" points="177.09,-129.5 187.09,-126 177.09,-122.5 177.09,-129.5"/>
</g>
<!-- f1_2&#45;&gt;f2_3 -->
<g id="edge20" class="edge">
<title>f1_2&#45;&gt;f2_3</title>
<path fill="none" stroke="black" d="M143.13,-113.75C155.89,-106.5 172.26,-97.2 186.31,-89.22"/>
<polygon fill="black" stroke="black" points="188.18,-92.19 195.15,-84.2 184.72,-86.1 188.18,-92.19"/>
</g>
<!-- f1_2&#45;&gt;f2_4 -->
<g id="edge21" class="edge">
<title>f1_2&#45;&gt;f2_4</title>
<path fill="none" stroke="black" d="M135.58,-110.06C151.45,-92.04 177.46,-62.5 195.73,-41.75"/>
<polygon fill="black" stroke="black" points="198.57,-43.82 202.55,-34 193.32,-39.19 198.57,-43.82"/>
</g>
<!-- f1_3&#45;&gt;f1_4 -->
<!-- f1_3&#45;&gt;f2_1 -->
<g id="edge23" class="edge">
<title>f1_3&#45;&gt;f2_1</title>
<path fill="none" stroke="black" d="M135.58,-87.94C151.45,-105.96 177.46,-135.5 195.73,-156.25"/>
<polygon fill="black" stroke="black" points="193.32,-158.81 202.55,-164 198.57,-154.18 193.32,-158.81"/>
</g>
<!-- f1_3&#45;&gt;f2_2 -->
<g id="edge24" class="edge">
<title>f1_3&#45;&gt;f2_2</title>
<path fill="none" stroke="black" d="M143.13,-84.25C155.89,-91.5 172.26,-100.8 186.31,-108.78"/>
<polygon fill="black" stroke="black" points="184.72,-111.9 195.15,-113.8 188.18,-105.81 184.72,-111.9"/>
</g>
<!-- f1_3&#45;&gt;f2_3 -->
<g id="edge25" class="edge">
<title>f1_3&#45;&gt;f2_3</title>
<path fill="none" stroke="black" d="M151.11,-72C159.25,-72 168.22,-72 176.83,-72"/>
<polygon fill="black" stroke="black" points="177.09,-75.5 187.09,-72 177.09,-68.5 177.09,-75.5"/>
</g>
<!-- f1_3&#45;&gt;f2_4 -->
<g id="edge26" class="edge">
<title>f1_3&#45;&gt;f2_4</title>
<path fill="none" stroke="black" d="M143.13,-59.75C155.89,-52.5 172.26,-43.2 186.31,-35.22"/>
<polygon fill="black" stroke="black" points="188.18,-38.19 195.15,-30.2 184.72,-32.1 188.18,-38.19"/>
</g>
<!-- f1_4&#45;&gt;f2_1 -->
<g id="edge28" class="edge">
<title>f1_4&#45;&gt;f2_1</title>
<path fill="none" stroke="black" d="M131.54,-35.03C148.19,-63.4 181.71,-120.5 201.35,-153.95"/>
<polygon fill="black" stroke="black" points="198.41,-155.86 206.49,-162.71 204.45,-152.31 198.41,-155.86"/>
</g>
<!-- f1_4&#45;&gt;f2_2 -->
<g id="edge29" class="edge">
<title>f1_4&#45;&gt;f2_2</title>
<path fill="none" stroke="black" d="M135.58,-33.94C151.45,-51.96 177.46,-81.5 195.73,-102.25"/>
<polygon fill="black" stroke="black" points="193.32,-104.81 202.55,-110 198.57,-100.18 193.32,-104.81"/>
</g>
<!-- f1_4&#45;&gt;f2_3 -->
<g id="edge30" class="edge">
<title>f1_4&#45;&gt;f2_3</title>
<path fill="none" stroke="black" d="M143.13,-30.25C155.89,-37.5 172.26,-46.8 186.31,-54.78"/>
<polygon fill="black" stroke="black" points="184.72,-57.9 195.15,-59.8 188.18,-51.81 184.72,-57.9"/>
</g>
<!-- f1_4&#45;&gt;f2_4 -->
<g id="edge31" class="edge">
<title>f1_4&#45;&gt;f2_4</title>
<path fill="none" stroke="black" d="M151.11,-18C159.25,-18 168.22,-18 176.83,-18"/>
<polygon fill="black" stroke="black" points="177.09,-21.5 187.09,-18 177.09,-14.5 177.09,-21.5"/>
</g>
<!-- f2_1&#45;&gt;f2_2 -->
<!-- c -->
<g id="node12" class="node">
<title>c</title>
<ellipse fill="lightblue" stroke="lightblue" cx="311.19" cy="-99" rx="27" ry="18"/>
<text text-anchor="middle" x="311.19" y="-95.3" font-family="Times,serif" font-size="14.00">c</text>
</g>
<!-- f2_1&#45;&gt;c -->
<g id="edge17" class="edge">
<title>f2_1&#45;&gt;c</title>
<path fill="none" stroke="black" d="M235.43,-165.14C249.68,-152.54 270.28,-134.31 286.25,-120.18"/>
<polygon fill="black" stroke="black" points="288.95,-122.47 294.12,-113.22 284.31,-117.22 288.95,-122.47"/>
</g>
<!-- f2_2&#45;&gt;f2_3 -->
<!-- f2_2&#45;&gt;c -->
<g id="edge22" class="edge">
<title>f2_2&#45;&gt;c</title>
<path fill="none" stroke="black" d="M245.61,-118.05C255.27,-115.2 266.27,-111.95 276.42,-108.96"/>
<polygon fill="black" stroke="black" points="277.61,-112.26 286.21,-106.07 275.63,-105.54 277.61,-112.26"/>
</g>
<!-- f2_3&#45;&gt;f2_4 -->
<!-- f2_3&#45;&gt;c -->
<g id="edge27" class="edge">
<title>f2_3&#45;&gt;c</title>
<path fill="none" stroke="black" d="M245.61,-79.95C255.27,-82.8 266.27,-86.05 276.42,-89.04"/>
<polygon fill="black" stroke="black" points="275.63,-92.46 286.21,-91.93 277.61,-85.74 275.63,-92.46"/>
</g>
<!-- f2_4&#45;&gt;c -->
<g id="edge32" class="edge">
<title>f2_4&#45;&gt;c</title>
<path fill="none" stroke="black" d="M235.43,-32.86C249.68,-45.46 270.28,-63.69 286.25,-77.82"/>
<polygon fill="black" stroke="black" points="284.31,-80.78 294.12,-84.78 288.95,-75.53 284.31,-80.78"/>
</g>
</g>
</svg>
